<?xml version="1.0" encoding="UTF-8" standalone="no"?>
<!DOCTYPE svg PUBLIC "-//W3C//DTD SVG 1.1//EN" "http://www.w3.org/Graphics/SVG/1.1/DTD/svg11.dtd">
<svg width="100%" height="100%" viewBox="0 0 110 110" version="1.1" xmlns="http://www.w3.org/2000/svg" xmlns:xlink="http://www.w3.org/1999/xlink" xml:space="preserve" xmlns:serif="http://www.serif.com/" style="fill-rule:evenodd;clip-rule:evenodd;stroke-linejoin:round;stroke-miterlimit:2;">
    <g transform="matrix(1,0,0,1,-9,-9)">
        <g transform="matrix(0.25,0,0,0.125,0,0)">
            <g id="CardBack" transform="matrix(4,0,0,8,8,16)">
                <g transform="matrix(0.993806,0,0,0.993229,0.44627,-1.9157)">
                    <path d="M117.28,25.589C117.28,16.42 109.841,8.976 100.677,8.976L23.197,8.976C14.034,8.976 6.595,16.42 6.595,25.589L6.595,103.114C6.595,112.283 14.034,119.726 23.197,119.726L100.677,119.726C109.841,119.726 117.28,112.283 117.28,103.114L117.28,25.589Z" style="fill:rgb(77,153,229);"/>
                    <path d="M117.28,25.589C117.28,16.42 109.841,8.976 100.677,8.976L23.197,8.976C14.034,8.976 6.595,16.42 6.595,25.589L6.595,103.114C6.595,112.283 14.034,119.726 23.197,119.726L100.677,119.726C109.841,119.726 117.28,112.283 117.28,103.114L117.28,25.589ZM114.261,25.589L114.261,103.114C114.261,110.616 108.175,116.706 100.677,116.706C100.677,116.706 23.197,116.706 23.197,116.706C15.7,116.706 9.613,110.616 9.613,103.114L9.613,25.589C9.613,18.087 15.7,11.997 23.197,11.997L100.677,11.997C108.175,11.997 114.261,18.087 114.261,25.589Z" style="fill:rgb(233,233,225);"/>
                </g>
                <g transform="matrix(4.97262,0,0,4.97262,-215.698,-123.8)">
                    <g transform="matrix(6.84848,0,0,6.84848,46.3995,33.5469)">
                        <path d="M0.277,0.031C0.272,-0.012 0.269,-0.061 0.269,-0.12L0.269,-0.248L0.427,-0.248C0.621,-0.248 0.735,-0.354 0.735,-0.532C0.735,-0.706 0.626,-0.801 0.428,-0.801L0.209,-0.801C0.145,-0.801 0.109,-0.802 0.062,-0.804C0.068,-0.757 0.07,-0.712 0.07,-0.658L0.07,-0.117C0.07,-0.058 0.068,-0.013 0.062,0.031L0.277,0.031ZM0.269,-0.418L0.269,-0.631L0.418,-0.631C0.49,-0.631 0.529,-0.595 0.529,-0.526C0.529,-0.457 0.488,-0.418 0.418,-0.418L0.269,-0.418Z" style="fill:white;fill-opacity:0.2;fill-rule:nonzero;"/>
                    </g>
                    <g transform="matrix(6.84848,0,0,6.84848,51.6249,33.5469)">
                        <path d="M0.689,-0.149C0.646,-0.144 0.602,-0.142 0.526,-0.142L0.268,-0.142L0.268,-0.31L0.484,-0.31C0.553,-0.31 0.587,-0.308 0.634,-0.303L0.634,-0.488C0.574,-0.482 0.55,-0.481 0.484,-0.481L0.268,-0.481L0.268,-0.628L0.528,-0.628C0.595,-0.628 0.631,-0.626 0.677,-0.621L0.677,-0.808C0.63,-0.803 0.596,-0.801 0.528,-0.801L0.209,-0.801C0.131,-0.801 0.103,-0.802 0.062,-0.804C0.068,-0.755 0.07,-0.72 0.07,-0.658L0.07,-0.112C0.07,-0.043 0.068,-0.006 0.062,0.034C0.105,0.032 0.133,0.031 0.209,0.031L0.524,0.031C0.61,0.031 0.646,0.033 0.689,0.038L0.689,-0.149Z" style="fill:white;fill-opacity:0.2;fill-rule:nonzero;"/>
                    </g>
                    <g transform="matrix(6.84848,0,0,6.84848,49.317,39.9601)">
                        <path d="M0.455,-0.261L0.564,-0.092C0.598,-0.039 0.617,-0.005 0.636,0.031L0.901,0.031C0.859,-0.02 0.831,-0.056 0.799,-0.101L0.578,-0.411L0.766,-0.675C0.801,-0.725 0.825,-0.756 0.861,-0.801L0.604,-0.801C0.588,-0.763 0.571,-0.733 0.531,-0.67L0.456,-0.553L0.38,-0.669C0.344,-0.724 0.322,-0.764 0.306,-0.801L0.047,-0.801C0.084,-0.757 0.114,-0.718 0.145,-0.673L0.332,-0.41L0.112,-0.101C0.083,-0.061 0.063,-0.035 0.009,0.031L0.274,0.031C0.299,-0.015 0.32,-0.05 0.347,-0.092L0.455,-0.261Z" style="fill:white;fill-opacity:0.2;fill-rule:nonzero;"/>
                    </g>
                    <g transform="matrix(6.84848,0,0,6.84848,55.5491,39.9601)">
                        <path d="M0.689,-0.149C0.646,-0.144 0.602,-0.142 0.526,-0.142L0.268,-0.142L0.268,-0.31L0.484,-0.31C0.553,-0.31 0.587,-0.308 0.634,-0.303L0.634,-0.488C0.574,-0.482 0.55,-0.481 0.484,-0.481L0.268,-0.481L0.268,-0.628L0.528,-0.628C0.595,-0.628 0.631,-0.626 0.677,-0.621L0.677,-0.808C0.63,-0.803 0.596,-0.801 0.528,-0.801L0.209,-0.801C0.131,-0.801 0.103,-0.802 0.062,-0.804C0.068,-0.755 0.07,-0.72 0.07,-0.658L0.07,-0.112C0.07,-0.043 0.068,-0.006 0.062,0.034C0.105,0.032 0.133,0.031 0.209,0.031L0.524,0.031C0.61,0.031 0.646,0.033 0.689,0.038L0.689,-0.149Z" style="fill:white;fill-opacity:0.2;fill-rule:nonzero;"/>
                    </g>
                    <g transform="matrix(6.84848,0,0,6.84848,53.8541,46.3733)">
                        <path d="M0.037,-0.22C0.044,-0.174 0.049,-0.151 0.059,-0.127C0.08,-0.07 0.117,-0.027 0.167,0.001C0.221,0.032 0.305,0.05 0.39,0.05C0.507,0.05 0.595,0.021 0.653,-0.035C0.699,-0.08 0.723,-0.144 0.723,-0.219C0.723,-0.311 0.687,-0.378 0.615,-0.423C0.577,-0.447 0.529,-0.464 0.453,-0.48C0.335,-0.504 0.335,-0.504 0.315,-0.513C0.283,-0.528 0.268,-0.549 0.268,-0.577C0.268,-0.623 0.313,-0.656 0.374,-0.656C0.45,-0.656 0.486,-0.629 0.498,-0.564L0.71,-0.587C0.697,-0.644 0.685,-0.674 0.66,-0.707C0.606,-0.782 0.509,-0.821 0.382,-0.821C0.185,-0.821 0.061,-0.724 0.061,-0.57C0.061,-0.489 0.095,-0.422 0.158,-0.378C0.195,-0.352 0.227,-0.34 0.319,-0.32C0.423,-0.296 0.448,-0.289 0.469,-0.279C0.495,-0.267 0.511,-0.24 0.511,-0.209C0.511,-0.153 0.465,-0.119 0.388,-0.119C0.337,-0.119 0.295,-0.136 0.271,-0.166C0.256,-0.186 0.249,-0.204 0.245,-0.24L0.037,-0.22Z" style="fill:white;fill-opacity:0.2;fill-rule:nonzero;"/>
                    </g>
                    <g transform="matrix(6.84848,0,0,6.84848,59.0863,46.3733)">
                        <path d="M0.441,-0.819C0.195,-0.819 0.037,-0.65 0.037,-0.386C0.037,-0.121 0.195,0.05 0.44,0.05C0.683,0.05 0.844,-0.125 0.844,-0.389C0.844,-0.651 0.687,-0.819 0.441,-0.819ZM0.441,-0.123C0.319,-0.123 0.244,-0.224 0.244,-0.387C0.244,-0.548 0.319,-0.647 0.441,-0.647C0.562,-0.647 0.636,-0.549 0.636,-0.387C0.636,-0.223 0.562,-0.123 0.441,-0.123Z" style="fill:white;fill-opacity:0.2;fill-rule:nonzero;"/>
                    </g>
                </g>
            </g>
        </g>
    </g>
</svg>
