<?xml version="1.0" encoding="UTF-8" standalone="no"?>
<!DOCTYPE svg PUBLIC "-//W3C//DTD SVG 1.1//EN" "http://www.w3.org/Graphics/SVG/1.1/DTD/svg11.dtd">
<svg width="100%" height="100%" viewBox="0 0 1024 1024" version="1.1" xmlns="http://www.w3.org/2000/svg" xmlns:xlink="http://www.w3.org/1999/xlink" xml:space="preserve" xmlns:serif="http://www.serif.com/" style="fill-rule:evenodd;clip-rule:evenodd;stroke-linejoin:round;stroke-miterlimit:2;">
    <circle cx="64" cy="192" r="32" style="fill:#d9bb26;"/>
    <circle cx="192" cy="192" r="32" style="fill:#29d926;"/>
    <circle cx="320" cy="192" r="32" style="fill:#2680d9;"/>
    <circle cx="448" cy="192" r="32" style="fill:#d92626;"/>
    <rect x="32" y="288" width="64" height="64" style="fill:#d9bb26;"/>
    <rect x="160" y="288" width="64" height="64" style="fill:#29d926;"/>
    <rect x="416" y="288" width="64" height="64" style="fill:#d92626;"/>
    <rect x="288" y="288" width="64" height="64" style="fill:#2680d9;"/>
    <path d="M64,416L71.184,438.111L94.434,438.111L75.625,451.777L82.809,473.889L64,460.223L45.191,473.889L52.375,451.777L33.566,438.111L56.816,438.111L64,416Z" style="fill:#d9bb26;"/>
    <path d="M192,416L199.184,438.111L222.434,438.111L203.625,451.777L210.809,473.889L192,460.223L173.191,473.889L180.375,451.777L161.566,438.111L184.816,438.111L192,416Z" style="fill:#29d926;"/>
    <path d="M320,416L327.184,438.111L350.434,438.111L331.625,451.777L338.809,473.889L320,460.223L301.191,473.889L308.375,451.777L289.566,438.111L312.816,438.111L320,416Z" style="fill:#2680d9;"/>
    <path d="M448,416L455.184,438.111L478.434,438.111L459.625,451.777L466.809,473.889L448,460.223L429.191,473.889L436.375,451.777L417.566,438.111L440.816,438.111L448,416Z" style="fill:#d92626;"/>
    <path d="M64,561.974C68.735,553.129 78.205,553.129 82.94,557.552C87.675,561.974 87.675,570.819 82.94,579.664C79.625,586.297 71.102,592.931 64,597.353C56.897,592.931 48.374,586.297 45.06,579.664C40.325,570.819 40.325,561.974 45.06,557.552C49.795,553.129 59.265,553.129 64,561.974Z" style="fill:#d9bb26;"/>
    <path d="M192,561.974C196.735,553.129 206.205,553.129 210.94,557.552C215.675,561.974 215.675,570.819 210.94,579.664C207.625,586.297 199.102,592.931 192,597.353C184.897,592.931 176.374,586.297 173.06,579.664C168.325,570.819 168.325,561.974 173.06,557.552C177.795,553.129 187.265,553.129 192,561.974Z" style="fill:#29d926;"/>
    <path d="M320,561.974C324.735,553.129 334.205,553.129 338.94,557.552C343.675,561.974 343.675,570.819 338.94,579.664C335.625,586.297 327.102,592.931 320,597.353C312.897,592.931 304.374,586.297 301.06,579.664C296.325,570.819 296.325,561.974 301.06,557.552C305.795,553.129 315.265,553.129 320,561.974Z" style="fill:#2680d9;"/>
    <path d="M448,561.974C452.735,553.129 462.205,553.129 466.94,557.552C471.675,561.974 471.675,570.819 466.94,579.664C463.625,586.297 455.102,592.931 448,597.353C440.897,592.931 432.374,586.297 429.06,579.664C424.325,570.819 424.325,561.974 429.06,557.552C433.795,553.129 443.265,553.129 448,561.974Z" style="fill:#d92626;"/>
    <path d="M69.025,672.631C66.374,672.287 63.69,672.287 61.039,672.631L60.506,681.326C58.347,681.769 56.265,682.527 54.327,683.575L48.33,677.257C46.078,678.697 44.022,680.423 42.213,682.39L47.393,689.393C46.024,691.12 44.916,693.039 44.105,695.088L35.45,694.103C34.651,696.654 34.185,699.297 34.064,701.967L42.533,704.002C42.595,706.205 42.98,708.387 43.675,710.478L36.412,715.286C37.44,717.754 38.782,720.079 40.405,722.202L48.201,718.316C49.664,719.964 51.361,721.389 53.238,722.543L50.766,730.896C53.139,732.126 55.661,733.044 58.269,733.627L61.744,725.639C63.924,725.961 66.14,725.961 68.32,725.639L71.794,733.627C74.403,733.044 76.925,732.126 79.298,730.896L76.825,722.543C78.702,721.389 80.4,719.964 81.863,718.316L89.659,722.202C91.282,720.079 92.624,717.754 93.651,715.286L86.388,710.478C87.084,708.387 87.469,706.205 87.53,704.002L96,701.967C95.879,699.297 95.413,696.654 94.613,694.103L85.959,695.088C85.147,693.039 84.04,691.12 82.671,689.393L87.851,682.39C86.042,680.423 83.986,678.697 81.734,677.257L75.737,683.575C73.798,682.527 71.716,681.769 69.558,681.326L69.025,672.631ZM65.032,697.173C68.454,697.173 71.232,699.951 71.232,703.373C71.232,706.795 68.454,709.573 65.032,709.573C61.61,709.573 58.832,706.795 58.832,703.373C58.832,699.951 61.61,697.173 65.032,697.173Z" style="fill:#d9bb26;"/>
    <path d="M197.025,672.258C194.374,671.914 191.69,671.914 189.039,672.258L188.506,680.952C186.347,681.396 184.265,682.153 182.327,683.202L176.33,676.884C174.078,678.324 172.022,680.049 170.213,682.017L175.393,689.02C174.024,690.747 172.916,692.666 172.105,694.715L163.45,693.73C162.651,696.28 162.185,698.924 162.064,701.594L170.533,703.628C170.595,705.831 170.98,708.013 171.675,710.104L164.412,714.913C165.44,717.381 166.782,719.705 168.405,721.829L176.201,717.943C177.664,719.591 179.361,721.015 181.238,722.17L178.766,730.522C181.139,731.752 183.661,732.67 186.269,733.253L189.744,725.266C191.924,725.588 194.14,725.588 196.32,725.266L199.794,733.253C202.403,732.67 204.925,731.752 207.298,730.522L204.825,722.17C206.702,721.015 208.4,719.591 209.863,717.943L217.659,721.829C219.282,719.705 220.624,717.381 221.651,714.913L214.388,710.104C215.084,708.013 215.469,705.831 215.53,703.628L224,701.594C223.879,698.924 223.413,696.28 222.613,693.73L213.959,694.715C213.147,692.666 212.04,690.747 210.671,689.02L215.851,682.017C214.042,680.049 211.986,678.324 209.734,676.884L203.737,683.202C201.798,682.153 199.716,681.396 197.558,680.952L197.025,672.258ZM193.032,696.8C196.454,696.8 199.232,699.578 199.232,703C199.232,706.422 196.454,709.2 193.032,709.2C189.61,709.2 186.832,706.422 186.832,703C186.832,699.578 189.61,696.8 193.032,696.8Z" style="fill:#29d926;"/>
    <path d="M323.993,672.258C321.342,671.914 318.658,671.914 316.007,672.258L315.474,680.952C313.315,681.396 311.233,682.153 309.295,683.202L303.298,676.884C301.046,678.324 298.99,680.049 297.181,682.017L302.361,689.02C300.992,690.747 299.884,692.666 299.073,694.715L290.418,693.73C289.619,696.28 289.153,698.924 289.032,701.594L297.501,703.628C297.563,705.831 297.948,708.013 298.643,710.104L291.38,714.913C292.408,717.381 293.75,719.705 295.373,721.829L303.169,717.943C304.632,719.591 306.329,721.015 308.206,722.17L305.734,730.522C308.107,731.752 310.629,732.67 313.237,733.253L316.712,725.266C318.892,725.588 321.108,725.588 323.288,725.266L326.762,733.253C329.371,732.67 331.893,731.752 334.266,730.522L331.793,722.17C333.67,721.015 335.368,719.591 336.831,717.943L344.627,721.829C346.25,719.705 347.592,717.381 348.619,714.913L341.356,710.104C342.052,708.013 342.437,705.831 342.498,703.628L350.968,701.594C350.847,698.924 350.381,696.28 349.581,693.73L340.927,694.715C340.115,692.666 339.008,690.747 337.639,689.02L342.819,682.017C341.01,680.049 338.954,678.324 336.702,676.884L330.705,683.202C328.766,682.153 326.684,681.396 324.526,680.952L323.993,672.258ZM320,696.8C323.422,696.8 326.2,699.578 326.2,703C326.2,706.422 323.422,709.2 320,709.2C316.578,709.2 313.8,706.422 313.8,703C313.8,699.578 316.578,696.8 320,696.8Z" style="fill:#2680d9;"/>
    <path d="M451.993,673.631C449.342,673.287 446.658,673.287 444.007,673.631L443.474,682.326C441.316,682.769 439.234,683.527 437.295,684.575L431.298,678.257C429.046,679.697 426.99,681.423 425.181,683.39L430.361,690.393C428.992,692.12 427.885,694.039 427.073,696.088L418.419,695.103C417.619,697.654 417.153,700.297 417.032,702.967L425.502,705.002C425.563,707.205 425.948,709.387 426.643,711.478L419.38,716.286C420.408,718.754 421.75,721.079 423.373,723.202L431.169,719.316C432.632,720.964 434.33,722.389 436.207,723.543L433.734,731.896C436.107,733.126 438.629,734.044 441.238,734.627L444.712,726.639C446.892,726.961 449.108,726.961 451.288,726.639L454.762,734.627C457.371,734.044 459.893,733.126 462.266,731.896L459.793,723.543C461.67,722.389 463.368,720.964 464.831,719.316L472.627,723.202C474.25,721.079 475.592,718.754 476.62,716.286L469.357,711.478C470.052,709.387 470.437,707.205 470.498,705.002L478.968,702.967C478.847,700.297 478.381,697.654 477.581,695.103L468.927,696.088C468.115,694.039 467.008,692.12 465.639,690.393L470.819,683.39C469.01,681.423 466.954,679.697 464.702,678.257L458.705,684.575C456.766,683.527 454.684,682.769 452.526,682.326L451.993,673.631ZM448,698.173C451.422,698.173 454.2,700.951 454.2,704.373C454.2,707.795 451.422,710.573 448,710.573C444.578,710.573 441.8,707.795 441.8,704.373C441.8,700.951 444.578,698.173 448,698.173Z" style="fill:#d92626;"/>
    <path d="M80.532,800C63.423,800 49.532,813.891 49.532,831C49.532,848.109 63.423,862 80.532,862C71.977,856.833 65.032,844.721 65.032,831C65.032,817.279 71.977,805.167 80.532,800Z" style="fill:#d9bb26;"/>
    <path d="M208.532,800C191.423,800 177.532,813.891 177.532,831C177.532,848.109 191.423,862 208.532,862C199.977,856.833 193.032,844.721 193.032,831C193.032,817.279 199.977,805.167 208.532,800Z" style="fill:#29d926;"/>
    <path d="M336.532,800C319.423,800 305.532,813.891 305.532,831C305.532,848.109 319.423,862 336.532,862C327.977,856.833 321.032,844.721 321.032,831C321.032,817.279 327.977,805.167 336.532,800Z" style="fill:#2680d9;"/>
    <path d="M464.532,800C447.423,800 433.532,813.891 433.532,831C433.532,848.109 447.423,862 464.532,862C455.977,856.833 449.032,844.721 449.032,831C449.032,817.279 455.977,805.167 464.532,800Z" style="fill:#d92626;"/>
    <path d="M55.811,929.439C55.811,924.919 59.48,921.25 64,921.25C68.52,921.25 72.189,924.919 72.189,929.439C74.449,925.525 79.461,924.182 83.375,926.442C87.289,928.701 88.632,933.714 86.372,937.628C90.286,935.368 95.299,936.711 97.558,940.625C99.818,944.539 98.475,949.551 94.561,951.811C99.081,951.811 102.75,955.48 102.75,960C102.75,964.52 99.081,968.189 94.561,968.189C98.475,970.449 99.818,975.461 97.558,979.375C95.299,983.289 90.286,984.632 86.372,982.372C88.632,986.286 87.289,991.299 83.375,993.558C79.461,995.818 74.449,994.475 72.189,990.561C72.189,995.081 68.52,998.75 64,998.75C59.48,998.75 55.811,995.081 55.811,990.561C53.551,994.475 48.539,995.818 44.625,993.558C40.711,991.299 39.368,986.286 41.628,982.372C37.714,984.632 32.701,983.289 30.442,979.375C28.182,975.461 29.525,970.449 33.439,968.189C28.919,968.189 25.25,964.52 25.25,960C25.25,955.48 28.919,951.811 33.439,951.811C29.525,949.551 28.182,944.539 30.442,940.625C32.701,936.711 37.714,935.368 41.628,937.628C39.368,933.714 40.711,928.701 44.625,926.442C48.539,924.182 53.551,925.525 55.811,929.439Z" style="fill:#d9bb26;"/>
    <path d="M182.779,929.439C182.779,924.919 186.449,921.25 190.968,921.25C195.488,921.25 199.157,924.919 199.157,929.439C201.417,925.525 206.429,924.182 210.343,926.442C214.257,928.701 215.6,933.714 213.34,937.628C217.254,935.368 222.267,936.711 224.527,940.625C226.786,944.539 225.443,949.551 221.529,951.811C226.049,951.811 229.718,955.48 229.718,960C229.718,964.52 226.049,968.189 221.529,968.189C225.443,970.449 226.786,975.461 224.527,979.375C222.267,983.289 217.254,984.632 213.34,982.372C215.6,986.286 214.257,991.299 210.343,993.558C206.429,995.818 201.417,994.475 199.157,990.561C199.157,995.081 195.488,998.75 190.968,998.75C186.449,998.75 182.779,995.081 182.779,990.561C180.519,994.475 175.507,995.818 171.593,993.558C167.679,991.299 166.336,986.286 168.596,982.372C164.682,984.632 159.669,983.289 157.41,979.375C155.15,975.461 156.493,970.449 160.407,968.189C155.887,968.189 152.218,964.52 152.218,960C152.218,955.48 155.887,951.811 160.407,951.811C156.493,949.551 155.15,944.539 157.41,940.625C159.669,936.711 164.682,935.368 168.596,937.628C166.336,933.714 167.679,928.701 171.593,926.442C175.507,924.182 180.519,925.525 182.779,929.439Z" style="fill:#29d926;"/>
    <path d="M311.811,929.439C311.811,924.919 315.48,921.25 320,921.25C324.52,921.25 328.189,924.919 328.189,929.439C330.449,925.525 335.461,924.182 339.375,926.442C343.289,928.701 344.632,933.714 342.372,937.628C346.286,935.368 351.299,936.711 353.558,940.625C355.818,944.539 354.475,949.551 350.561,951.811C355.081,951.811 358.75,955.48 358.75,960C358.75,964.52 355.081,968.189 350.561,968.189C354.475,970.449 355.818,975.461 353.558,979.375C351.299,983.289 346.286,984.632 342.372,982.372C344.632,986.286 343.289,991.299 339.375,993.558C335.461,995.818 330.449,994.475 328.189,990.561C328.189,995.081 324.52,998.75 320,998.75C315.48,998.75 311.811,995.081 311.811,990.561C309.551,994.475 304.539,995.818 300.625,993.558C296.711,991.299 295.368,986.286 297.628,982.372C293.714,984.632 288.701,983.289 286.442,979.375C284.182,975.461 285.525,970.449 289.439,968.189C284.919,968.189 281.25,964.52 281.25,960C281.25,955.48 284.919,951.811 289.439,951.811C285.525,949.551 284.182,944.539 286.442,940.625C288.701,936.711 293.714,935.368 297.628,937.628C295.368,933.714 296.711,928.701 300.625,926.442C304.539,924.182 309.551,925.525 311.811,929.439Z" style="fill:#2680d9;"/>
    <path d="M440.843,929.439C440.843,924.919 444.512,921.25 449.032,921.25C453.551,921.25 457.221,924.919 457.221,929.439C459.481,925.525 464.493,924.182 468.407,926.442C472.321,928.701 473.664,933.714 471.404,937.628C475.318,935.368 480.331,936.711 482.59,940.625C484.85,944.539 483.507,949.551 479.593,951.811C484.113,951.811 487.782,955.48 487.782,960C487.782,964.52 484.113,968.189 479.593,968.189C483.507,970.449 484.85,975.461 482.59,979.375C480.331,983.289 475.318,984.632 471.404,982.372C473.664,986.286 472.321,991.299 468.407,993.558C464.493,995.818 459.481,994.475 457.221,990.561C457.221,995.081 453.551,998.75 449.032,998.75C444.512,998.75 440.843,995.081 440.843,990.561C438.583,994.475 433.571,995.818 429.657,993.558C425.743,991.299 424.4,986.286 426.66,982.372C422.746,984.632 417.733,983.289 415.473,979.375C413.214,975.461 414.557,970.449 418.471,968.189C413.951,968.189 410.282,964.52 410.282,960C410.282,955.48 413.951,951.811 418.471,951.811C414.557,949.551 413.214,944.539 415.473,940.625C417.733,936.711 422.746,935.368 426.66,937.628C424.4,933.714 425.743,928.701 429.657,926.442C433.571,924.182 438.583,925.525 440.843,929.439Z" style="fill:#d92626;"/>
    <path d="M64,32C64,32 40,60 40,72C40,85.246 50.754,96 64,96C77.246,96 88,85.246 88,72C88,60 64,32 64,32Z" style="fill:#d9bb26;"/>
    <path d="M192,32C192,32 168,60 168,72C168,85.246 178.754,96 192,96C205.246,96 216,85.246 216,72C216,60 192,32 192,32Z" style="fill:#29d926;"/>
    <path d="M320,32C320,32 296,60 296,72C296,85.246 306.754,96 320,96C333.246,96 344,85.246 344,72C344,60 320,32 320,32Z" style="fill:#2680d9;"/>
    <path d="M448,32C448,32 424,60 424,72C424,85.246 434.754,96 448,96C461.246,96 472,85.246 472,72C472,60 448,32 448,32Z" style="fill:#d92626;"/>
</svg>
