<svg xmlns="http://www.w3.org/2000/svg" xmlns:xlink="http://www.w3.org/1999/xlink"><defs><style>
    .sprite-symbol-usage {display: none;}
    .sprite-symbol-usage:target {display: inline;}
  </style><symbol viewBox="0 0 110 110" fill-rule="evenodd" stroke-linejoin="round" stroke-miterlimit="2" id="card-back--sprite"><g transform="matrix(.25 0 0 .125 -9 -9)"><g id="card-back--sprite_CardBack"><path d="M117.28 25.589c0-9.169-7.439-16.613-16.603-16.613h-77.48c-9.163 0-16.602 7.444-16.602 16.613v77.525c0 9.169 7.439 16.612 16.602 16.612h77.48c9.164 0 16.603-7.443 16.603-16.612V25.589z" fill="#4d99e5" transform="matrix(3.97522 0 0 7.94583 9.785 .674)" /><path d="M117.28 25.589c0-9.169-7.439-16.613-16.603-16.613h-77.48c-9.163 0-16.602 7.444-16.602 16.613v77.525c0 9.169 7.439 16.612 16.602 16.612h77.48c9.164 0 16.603-7.443 16.603-16.612V25.589zm-3.019 0v77.525c0 7.502-6.086 13.592-13.584 13.592h-77.48c-7.497 0-13.584-6.09-13.584-13.592V25.589c0-7.502 6.087-13.592 13.584-13.592h77.48c7.498 0 13.584 6.09 13.584 13.592z" fill="#e9e9e1" transform="matrix(3.97522 0 0 7.94583 9.785 .674)" /><g><path d="M.277.031A1.298 1.298 0 01.269-.12v-.128h.158c.194 0 .308-.106.308-.284 0-.174-.109-.269-.307-.269H.209c-.064 0-.1-.001-.147-.003.006.047.008.092.008.146v.541c0 .059-.002.104-.008.148h.215zM.269-.418v-.213h.149c.072 0 .111.036.111.105s-.041.108-.111.108H.269z" fill="#fff" fill-opacity=".2" fill-rule="nonzero" transform="matrix(136.21955 0 0 272.4391 68.116 360.128)" /><path d="M.689-.149a1.354 1.354 0 01-.163.007H.268V-.31h.216c.069 0 .103.002.15.007v-.185c-.06.006-.084.007-.15.007H.268v-.147h.26c.067 0 .103.002.149.007v-.187a1.228 1.228 0 01-.149.007H.209c-.078 0-.106-.001-.147-.003.006.049.008.084.008.146v.546a.922.922 0 01-.008.146A2.62 2.62 0 01.209.031h.315c.086 0 .122.002.165.007v-.187z" fill="#fff" fill-opacity=".2" fill-rule="nonzero" transform="matrix(136.21955 0 0 272.4391 172.052 360.128)" /><path d="M.455-.261l.109.169c.034.053.053.087.072.123h.265a2.181 2.181 0 01-.102-.132l-.221-.31.188-.264a2.18 2.18 0 01.095-.126H.604a.83.83 0 01-.073.131l-.075.117L.38-.669a.87.87 0 01-.074-.132H.047c.037.044.067.083.098.128l.187.263-.22.309c-.029.04-.049.066-.103.132h.265C.299-.015.32-.05.347-.092l.108-.169z" fill="#fff" fill-opacity=".2" fill-rule="nonzero" transform="matrix(136.21955 0 0 272.4391 126.147 615.251)" /><path d="M.689-.149a1.354 1.354 0 01-.163.007H.268V-.31h.216c.069 0 .103.002.15.007v-.185c-.06.006-.084.007-.15.007H.268v-.147h.26c.067 0 .103.002.149.007v-.187a1.228 1.228 0 01-.149.007H.209c-.078 0-.106-.001-.147-.003.006.049.008.084.008.146v.546a.922.922 0 01-.008.146A2.62 2.62 0 01.209.031h.315c.086 0 .122.002.165.007v-.187z" fill="#fff" fill-opacity=".2" fill-rule="nonzero" transform="matrix(136.21955 0 0 272.4391 250.106 615.251)" /><path d="M.037-.22a.373.373 0 00.022.093c.021.057.058.1.108.128A.475.475 0 00.39.05C.507.05.595.021.653-.035a.25.25 0 00.07-.184.223.223 0 00-.108-.204.481.481 0 00-.162-.057C.335-.504.335-.504.315-.513.283-.528.268-.549.268-.577c0-.046.045-.079.106-.079.076 0 .112.027.124.092L.71-.587a.278.278 0 00-.05-.12C.606-.782.509-.821.382-.821c-.197 0-.321.097-.321.251 0 .081.034.148.097.192a.388.388 0 00.161.058.807.807 0 01.15.041.075.075 0 01.042.07c0 .056-.046.09-.123.09-.051 0-.093-.017-.117-.047A.132.132 0 01.245-.24l-.208.02z" fill="#fff" fill-opacity=".2" fill-rule="nonzero" transform="matrix(136.21955 0 0 272.4391 216.392 870.374)" /><path d="M.441-.819c-.246 0-.404.169-.404.433 0 .265.158.436.403.436.243 0 .404-.175.404-.439 0-.262-.157-.43-.403-.43zm0 .696c-.122 0-.197-.101-.197-.264 0-.161.075-.26.197-.26.121 0 .195.098.195.26 0 .164-.074.264-.195.264z" fill="#fff" fill-opacity=".2" fill-rule="nonzero" transform="matrix(136.21955 0 0 272.4391 320.463 870.374)" /></g></g></g></symbol><symbol viewBox="0 0 110 110" fill-rule="evenodd" stroke-linejoin="round" stroke-miterlimit="2" id="card-front--sprite"><g id="card-front--sprite_CardBack"><path d="M110 16.5C110 7.393 102.607 0 93.5 0h-77C7.393 0 0 7.393 0 16.5v77c0 9.107 7.393 16.5 16.5 16.5h77c9.107 0 16.5-7.393 16.5-16.5v-77z" fill="#e9e9e1" /><path d="M110 16.5C110 7.393 102.607 0 93.5 0h-77C7.393 0 0 7.393 0 16.5v77c0 9.107 7.393 16.5 16.5 16.5h77c9.107 0 16.5-7.393 16.5-16.5v-77zm-3 0v77c0 7.451-6.049 13.5-13.5 13.5h-77C9.049 107 3 100.951 3 93.5v-77C3 9.049 9.049 3 16.5 3h77c7.451 0 13.5 6.049 13.5 13.5z" fill="#4d99e5" /></g></symbol></defs><use id="card-back--sprite-usage" xlink:href="#card-back--sprite" class="sprite-symbol-usage" /><use id="card-front--sprite-usage" xlink:href="#card-front--sprite" class="sprite-symbol-usage" /></svg>